<?xml version="1.0" encoding="UTF-8" standalone="no"?>
<!DOCTYPE svg PUBLIC "-//W3C//DTD SVG 1.1//EN" "http://www.w3.org/Graphics/SVG/1.1/DTD/svg11.dtd">
<svg version="1.1" xmlns="http://www.w3.org/2000/svg" xmlns:xlink="http://www.w3.org/1999/xlink" preserveAspectRatio="xMidYMid meet" viewBox="0 0 250 250" width="250" height="250"><defs><path d="M36.96 17.91L102.46 17.91L102.46 232.09L36.96 232.09L36.96 17.91Z" id="b1pftBXjbe"></path><path d="M99.46 17.91L208.45 17.91L208.45 32.92L99.46 32.92L99.46 17.91Z" id="a20CmCbl60"></path><path d="M99.46 117.49L208.45 117.49L208.45 132.51L99.46 132.51L99.46 117.49Z" id="fQZFmkFk3"></path><path d="M187 38.5L218.78 38.5C218.78 38.5 218.78 38.5 218.78 38.5C230.15 61.25 230.57 87.95 219.91 111.04C219.76 111.37 219.38 112.19 218.78 113.5L109.79 113.5C110.33 112.12 110.66 111.26 110.8 110.91C119.9 87.56 119.54 61.58 109.79 38.5C109.79 38.5 109.79 38.5 109.79 38.5L187 38.5Z" id="c17ZXCQ2hr"></path><path d="M99.46 217.08L208.45 217.08L208.45 232.09L99.46 232.09L99.46 217.08Z" id="a72vhs2Ee"></path><path d="M187 137.12L218.78 137.12C218.78 137.12 218.78 137.12 218.78 137.12C230.15 159.88 230.57 186.57 219.91 209.67C219.76 210 219.38 210.82 218.78 212.12L109.79 212.12C110.33 210.74 110.66 209.88 110.8 209.54C119.9 186.19 119.54 160.21 109.79 137.12C109.79 137.12 109.79 137.12 109.79 137.12L187 137.12Z" id="jiVAroLyn"></path><path d="M102.46 116.29L224.08 116.29C224.45 115.33 224.68 114.74 224.78 114.5C234.6 89.14 234.37 60.99 224.12 35.81C224.11 35.79 224.1 35.76 224.08 35.71L102.46 35.71" id="e1EEBGPIr2"></path><path d="M102.46 214.91L224.08 214.91C224.45 213.96 224.68 213.36 224.78 213.12C234.6 187.77 234.37 159.62 224.12 134.43C224.11 134.42 224.1 134.39 224.08 134.34L102.46 134.34" id="g284XqdNU"></path><path d="M223.2 50.5L114.2 50.5" id="a24vCjuEWY"></path><path d="M227.62 76L118.62 76" id="dM4AFLDXz"></path><path d="M223.2 103L114.2 103" id="b2ZVDPEoyi"></path><path d="M223.2 149.12L114.2 149.12" id="b4ZDRTVXuI"></path><path d="M227.62 174.62L118.62 174.62" id="b1Ilezoza"></path><path d="M223.2 200.37L114.2 200.37" id="f4koY7Zrz3"></path></defs><g><g><g><use xlink:href="#b1pftBXjbe" opacity="1" fill="#1856bc" fill-opacity="1"></use></g><g><use xlink:href="#a20CmCbl60" opacity="1" fill="#1856bc" fill-opacity="1"></use></g><g><use xlink:href="#fQZFmkFk3" opacity="1" fill="#1856bc" fill-opacity="1"></use></g><g><use xlink:href="#c17ZXCQ2hr" opacity="1" fill="#f9fbfc" fill-opacity="1"></use><g><use xlink:href="#c17ZXCQ2hr" opacity="1" fill-opacity="0" stroke="#000000" stroke-width="1" stroke-opacity="1"></use></g></g><g><use xlink:href="#a72vhs2Ee" opacity="1" fill="#1856bc" fill-opacity="1"></use></g><g><use xlink:href="#jiVAroLyn" opacity="1" fill="#f9fbfc" fill-opacity="1"></use><g><use xlink:href="#jiVAroLyn" opacity="1" fill-opacity="0" stroke="#000000" stroke-width="1" stroke-opacity="1"></use></g></g><g><g><use xlink:href="#e1EEBGPIr2" opacity="1" fill-opacity="0" stroke="#422c10" stroke-width="5" stroke-opacity="1"></use></g></g><g><g><use xlink:href="#g284XqdNU" opacity="1" fill-opacity="0" stroke="#422c10" stroke-width="5" stroke-opacity="1"></use></g></g><g><g><use xlink:href="#a24vCjuEWY" opacity="1" fill-opacity="0" stroke="#5c3607" stroke-width="5" stroke-opacity="1"></use></g></g><g><g><use xlink:href="#dM4AFLDXz" opacity="1" fill-opacity="0" stroke="#5c3607" stroke-width="5" stroke-opacity="1"></use></g></g><g><g><use xlink:href="#b2ZVDPEoyi" opacity="1" fill-opacity="0" stroke="#5c3607" stroke-width="5" stroke-opacity="1"></use></g></g><g><g><use xlink:href="#b4ZDRTVXuI" opacity="1" fill-opacity="0" stroke="#5c3607" stroke-width="5" stroke-opacity="1"></use></g></g><g><g><use xlink:href="#b1Ilezoza" opacity="1" fill-opacity="0" stroke="#5c3607" stroke-width="5" stroke-opacity="1"></use></g></g><g><g><use xlink:href="#f4koY7Zrz3" opacity="1" fill-opacity="0" stroke="#5c3607" stroke-width="5" stroke-opacity="1"></use></g></g></g></g></svg>